<svg id="visual" viewBox="0 0 900 600" width="900" height="600" xmlns="http://www.w3.org/2000/svg" xmlns:xlink="http://www.w3.org/1999/xlink" version="1.1"><rect x="0" y="0" width="900" height="600" fill="#A8A89E"></rect><path d="M0 374L21.5 375C43 376 86 378 128.8 397.8C171.7 417.7 214.3 455.3 257.2 461.7C300 468 343 443 385.8 425.5C428.7 408 471.3 398 514.2 402.7C557 407.3 600 426.7 642.8 430C685.7 433.3 728.3 420.7 771.2 413.2C814 405.7 857 403.3 878.5 402.2L900 401L900 601L878.5 601C857 601 814 601 771.2 601C728.3 601 685.7 601 642.8 601C600 601 557 601 514.2 601C471.3 601 428.7 601 385.8 601C343 601 300 601 257.2 601C214.3 601 171.7 601 128.8 601C86 601 43 601 21.5 601L0 601Z" fill="#0066FF" stroke-linecap="round" stroke-linejoin="miter"></path></svg>