<svg xmlns="http://www.w3.org/2000/svg" version="1.1" xmlns:xlink="http://www.w3.org/1999/xlink" xmlns:svgjs="http://svgjs.dev/svgjs" width="1000" height="1000" viewBox="0 0 1000 1000"><rect width="1000" height="1000" fill="#000000"></rect><g transform="matrix(0.7,0,0,0.7,149.57575757575756,420.7240981528208)"><svg viewBox="0 0 396 90" data-background-color="#ffffff" preserveAspectRatio="xMidYMid meet" height="227" width="1000" xmlns="http://www.w3.org/2000/svg" xmlns:xlink="http://www.w3.org/1999/xlink"><defs></defs><g id="tight-bounds" transform="matrix(1,0,0,1,0.2400000000000091,-0.09860814193748979)"><svg viewBox="0 0 395.52 90.197216283875" height="90.197216283875" width="395.52"><g><svg viewBox="0 0 395.52 90.197216283875" height="90.197216283875" width="395.52"><g><svg viewBox="0 0 539.5922481412567 123.05248460431655" height="90.197216283875" width="395.52"><g transform="matrix(1,0,0,1,0,17.00653007194245)"><svg viewBox="0 0 395.52 89.03942446043165" height="89.03942446043165" width="395.52"><g><svg viewBox="0 0 395.52 89.03942446043165" height="89.03942446043165" width="395.52"><g><svg viewBox="0 0 395.52 89.03942446043165" height="89.03942446043165" width="395.52"><g transform="matrix(1,0,0,1,0,0)"><svg width="395.52" viewBox="3 -37.05 166.79 37.55" height="89.03942446043165" data-palette-color="#ffffff"><g class="undefined-text-0" data-fill-palette-color="primary" id="text-0"><path d="M13.95 0.15Q9.05 0.15 6.78-0.9 4.5-1.95 3.75-4.4 3-6.85 3-11.95L3-11.95Q3-17.7 3.53-22.5 4.05-27.3 4.95-32.6L4.95-32.6Q5.15-33.8 6.18-34.52 7.2-35.25 8.8-35.25L8.8-35.25Q10.5-35.25 11.38-34.43 12.25-33.6 12.25-32.2L12.25-32.2Q12.25-31.9 12.15-31.3L12.15-31.3Q11.1-25.15 10.55-20.83 10-16.5 10-11.75L10-11.75Q10-9.3 10.23-8.15 10.45-7 11.13-6.55 11.8-6.1 13.25-6.1L13.25-6.1Q16.35-6.1 23.95-7.5L23.95-7.5Q24.2-7.55 24.65-7.55L24.65-7.55Q25.95-7.55 26.73-6.58 27.5-5.6 27.5-4.3L27.5-4.3Q27.5-1.65 23.65-0.95L23.65-0.95Q20.2-0.3 18.43-0.08 16.65 0.15 13.95 0.15L13.95 0.15ZM37.45-26.1Q35.45-26.1 34.17-27.38 32.9-28.65 32.9-30.6L32.9-30.6Q32.9-32.55 34.17-33.77 35.45-35 37.5-35L37.5-35Q39.5-35 40.75-33.77 42-32.55 42-30.65L42-30.65Q42-28.7 40.72-27.4 39.45-26.1 37.45-26.1L37.45-26.1ZM36.75-0.3Q35.15-0.3 34.1-1.1 33.05-1.9 33.1-3.25L33.1-3.25 33.5-21.7Q33.55-23.05 34.55-23.83 35.55-24.6 37.15-24.6L37.15-24.6Q38.8-24.6 39.85-23.8 40.9-23 40.85-21.6L40.85-21.6 40.45-3.2Q40.4-1.85 39.37-1.07 38.35-0.3 36.75-0.3L36.75-0.3ZM62.84-25.55Q67.25-25.55 69.67-22.48 72.09-19.4 72.09-13.4L72.09-13.4 72.05-2.1Q72.05-1.05 71.02-0.5 70 0.05 68.5 0.05L68.5 0.05Q67.05 0.05 65.92-0.45 64.8-0.95 64.8-1.85L64.8-1.85 64.84-13.45Q64.84-17.1 64.05-18.55 63.25-20 61.55-20L61.55-20Q60.1-20 59.25-18.7 58.4-17.4 57.8-13.65L57.8-13.65Q57.45-11.55 57.45-9L57.45-9 57.5-2.55Q57.5-1.25 56.52-0.58 55.55 0.1 53.9 0.1L53.9 0.1Q52.2 0.1 51.22-0.6 50.25-1.3 50.25-2.55L50.25-2.55Q50.25-12.95 49.95-18.75L49.95-18.75Q49.9-19.35 49.67-19.88 49.45-20.4 49.15-20.85 48.85-21.3 48.7-21.55L48.7-21.55Q48.4-22.1 48.4-22.65L48.4-22.65Q48.4-23.7 49.62-24.63 50.85-25.55 52-25.55L52-25.55Q52.55-25.55 53.07-25.2 53.6-24.85 54.25-24.05L54.25-24.05Q54.8-23.35 55.05-22.8 55.3-22.25 55.3-21.55L55.3-21.55 55.3-21.1Q56.2-23 58.02-24.28 59.85-25.55 62.84-25.55L62.84-25.55ZM81.19 0.4Q79.69 0.4 78.64-0.35 77.59-1.1 77.59-2.2L77.59-2.2 77.59-34.1Q77.59-35.45 78.59-36.25 79.59-37.05 81.14-37.05L81.14-37.05Q82.74-37.05 83.77-36.25 84.79-35.45 84.79-34.1L84.79-34.1 84.69-20.1 87.64-22Q92.54-25.1 94.79-26.45L94.79-26.45Q95.89-27.1 97.04-26.95L97.04-26.95Q98.04-26.8 98.79-25.78 99.54-24.75 99.54-23.6L99.54-23.6Q99.54-22.8 99.14-22.35 98.74-21.9 97.79-21.3L97.79-21.3 86.19-14.15 98.24-4.95Q99.09-4.3 99.09-3L99.09-3Q99.09-1.7 98.12-0.85 97.14 0 95.84 0L95.84 0Q94.59 0 93.34-0.9L93.34-0.9Q91.59-2.2 88.39-5.05L88.39-5.05Q84.99-8 84.69-8.25L84.69-8.25 84.69-2.25Q84.69-1.1 83.69-0.35 82.69 0.4 81.19 0.4L81.19 0.4ZM138.29-16.75Q138.29-14.2 138.39-9.9L138.39-9.9Q138.49-5.6 138.49-3.2L138.49-3.2Q138.49-1.5 137.54-0.58 136.59 0.35 134.89 0.35L134.89 0.35Q133.19 0.35 132.19-0.55 131.19-1.45 131.19-2.95L131.19-2.95 131.19-16.45Q131.19-21.35 130.89-24.08 130.59-26.8 130.14-26.8L130.14-26.8Q129.74-26.8 128.94-24.7 128.14-22.6 127.54-20.55L127.54-20.55Q126.69-17.75 125.79-14.05L125.79-14.05Q125.44-12.7 124.44-12.05 123.44-11.4 121.79-11.4L121.79-11.4Q118.44-11.4 117.74-13.85L117.74-13.85 117.14-16Q116.44-18.55 115.69-20.75L115.69-20.75Q115.09-22.5 114.19-24.65 113.29-26.8 113.04-26.8L113.04-26.8Q112.74-26.8 112.59-24.03 112.44-21.25 112.34-16.65L112.34-16.65Q112.29-14.85 112.29-11.85L112.29-11.85 112.34-2.85Q112.34-1.5 111.34-0.68 110.34 0.15 108.59 0.15L108.59 0.15Q106.89 0.15 105.97-0.75 105.04-1.65 105.04-3.85L105.04-3.85 105.09-10.15Q105.19-14.35 105.19-16.8L105.19-16.8Q105.19-23.6 105.89-27.73 106.59-31.85 108.09-33.75 109.59-35.65 112.04-35.65L112.04-35.65Q114.99-35.65 116.92-33.3 118.84-30.95 119.82-28 120.79-25.05 121.69-21L121.69-21Q122.64-24.9 123.74-27.93 124.84-30.95 126.82-33.3 128.79-35.65 131.64-35.65L131.64-35.65Q134.24-35.65 135.69-33.48 137.14-31.3 137.72-27.23 138.29-23.15 138.29-16.75L138.29-16.75ZM157.89 0.5Q153.34 0.5 150.21-1.2 147.09-2.9 145.54-5.9 143.99-8.9 143.99-12.7L143.99-12.7Q143.99-16.5 145.76-19.48 147.54-22.45 150.61-24.1 153.69-25.75 157.49-25.75L157.49-25.75Q160.89-25.75 163.71-24.4 166.54-23.05 168.16-20.53 169.79-18 169.79-14.6L169.79-14.6Q169.79-12.45 169.01-11.53 168.24-10.6 166.39-10.6L166.39-10.6 150.24-10.6Q150.24-9.4 151.09-8.18 151.94-6.95 153.64-6.1 155.34-5.25 157.69-5.25L157.69-5.25Q159.79-5.25 160.99-5.88 162.19-6.5 163.49-7.75L163.49-7.75Q164.44-8.6 165.44-8.6L165.44-8.6Q166.59-8.6 167.59-7.73 168.59-6.85 168.59-5.75L168.59-5.75Q168.59-4.85 167.99-4L167.99-4Q166.94-2.35 164.44-0.93 161.94 0.5 157.89 0.5L157.89 0.5ZM150.24-15.1L163.19-15.1Q163.64-15.1 163.76-15.25 163.89-15.4 163.89-15.8L163.89-15.8Q163.89-17.75 162.01-19.05 160.14-20.35 157.39-20.35L157.39-20.35Q155.19-20.35 153.56-19.5 151.94-18.65 151.09-17.43 150.24-16.2 150.24-15.1L150.24-15.1Z" fill="#ffffff" data-fill-palette-color="primary"></path></g></svg></g></svg></g></svg></g></svg></g><g transform="matrix(1,0,0,1,416.54007116892086,0)"><svg viewBox="0 0 123.05217697233596 123.05248460431655" height="123.05248460431655" width="123.05217697233596"><g><svg xmlns="http://www.w3.org/2000/svg" xmlns:xlink="http://www.w3.org/1999/xlink" version="1.1" x="0" y="0" viewBox="0.0002500000000000835 0.0002500000000000835 99.99950000000001 99.99975" style="enable-background:new 0 0 100 100;" xml:space="preserve" height="123.05248460431655" width="123.05217697233596" class="icon-icon-0" data-fill-palette-color="accent" id="icon-0"><path d="M98.169 1.831c-2.441-2.441-6.433-2.441-8.874 0L76.574 14.562c-5.212-3.467-11.193-5.188-17.199-5.188-7.996 0-16.095 3.052-22.095 9.155L18.53 37.28C7.837 47.961 6.519 64.478 14.551 76.6L1.831 89.331c-2.441 2.441-2.441 6.396 0 8.838C3.052 99.39 4.651 100 6.25 100c1.6 0 3.198-0.61 4.419-1.831l12.72-12.731c5.213 3.467 11.23 5.188 17.236 5.188 7.892 0 15.991-3.052 22.095-9.155l18.714-18.75C92.127 52.039 93.445 35.522 85.412 23.4l12.757-12.731C100.61 8.228 100.61 4.272 98.169 1.831zM78.088 40.625c0 5.005-1.953 9.717-5.492 13.257l-18.714 18.75c-3.552 3.54-8.355 5.493-13.257 5.493-2.832 0-5.542-0.695-8.032-1.88l9.223-9.326c2.441-2.441 2.441-6.396 0-8.838-2.338-2.441-6.293-2.441-8.734 0l-9.326 9.326c-1.196-2.478-1.88-5.188-1.88-8.032 0-5.005 1.953-9.717 5.493-13.257l18.646-18.75c3.54-3.54 8.355-5.493 13.36-5.493 2.832 0 5.529 0.695 8.02 1.88l-9.509 9.521c-2.441 2.441-2.441 6.396 0 8.838 1.221 1.221 2.819 1.831 4.419 1.831 1.587 0 3.186-0.61 4.406-1.831l9.498-9.521C77.404 35.07 78.088 37.781 78.088 40.625z" fill="#ffffff" data-fill-palette-color="accent"></path></svg></g></svg></g></svg></g></svg></g></svg><rect width="395.52" height="90.197216283875" fill="none" stroke="none" visibility="hidden"></rect></g></svg></g></svg>