<svg id="visual" viewBox="0 0 1920 1080" width="1920" height="1080" xmlns="http://www.w3.org/2000/svg" xmlns:xlink="http://www.w3.org/1999/xlink" version="1.1"><path d="M0 293L175 282L349 282L524 141L698 152L873 249L1047 422L1222 368L1396 368L1571 303L1745 260L1920 303L1920 0L1745 0L1571 0L1396 0L1222 0L1047 0L873 0L698 0L524 0L349 0L175 0L0 0Z" fill="#00cc8e"></path><path d="M0 465L175 411L349 455L524 239L698 293L873 455L1047 530L1222 541L1396 487L1571 519L1745 347L1920 519L1920 301L1745 258L1571 301L1396 366L1222 366L1047 420L873 247L698 150L524 139L349 280L175 280L0 291Z" fill="#00b98a"></path><path d="M0 671L175 606L349 552L524 530L698 552L873 541L1047 671L1222 638L1396 692L1571 692L1745 617L1920 757L1920 517L1745 345L1571 517L1396 485L1222 539L1047 528L873 453L698 291L524 237L349 453L175 409L0 463Z" fill="#00a784"></path><path d="M0 984L175 897L349 962L524 908L698 951L873 897L1047 1005L1222 973L1396 973L1571 908L1745 984L1920 973L1920 755L1745 615L1571 690L1396 690L1222 636L1047 669L873 539L698 550L524 528L349 550L175 604L0 669Z" fill="#00957c"></path><path d="M0 1081L175 1081L349 1081L524 1081L698 1081L873 1081L1047 1081L1222 1081L1396 1081L1571 1081L1745 1081L1920 1081L1920 971L1745 982L1571 906L1396 971L1222 971L1047 1003L873 895L698 949L524 906L349 960L175 895L0 982Z" fill="#038373"></path></svg>