<svg id="visual" viewBox="0 0 1920 1080" width="1920" height="1080" xmlns="http://www.w3.org/2000/svg" xmlns:xlink="http://www.w3.org/1999/xlink" version="1.1"><rect x="0" y="0" width="1920" height="1080" fill="#888277"></rect><path d="M0 931L45.7 895.8C91.3 860.7 182.7 790.3 274.2 756.8C365.7 723.3 457.3 726.7 548.8 743.5C640.3 760.3 731.7 790.7 823 786.7C914.3 782.7 1005.7 744.3 1097 750C1188.3 755.7 1279.7 805.3 1371.2 816.7C1462.7 828 1554.3 801 1645.8 781C1737.3 761 1828.7 748 1874.3 741.5L1920 735L1920 1081L1874.3 1081C1828.7 1081 1737.3 1081 1645.8 1081C1554.3 1081 1462.7 1081 1371.2 1081C1279.7 1081 1188.3 1081 1097 1081C1005.7 1081 914.3 1081 823 1081C731.7 1081 640.3 1081 548.8 1081C457.3 1081 365.7 1081 274.2 1081C182.7 1081 91.3 1081 45.7 1081L0 1081Z" fill="#0066FF" stroke-linecap="round" stroke-linejoin="miter"></path></svg>