<svg id="visual" viewBox="0 0 1920 1080" width="1920" height="1080" xmlns="http://www.w3.org/2000/svg" xmlns:xlink="http://www.w3.org/1999/xlink" version="1.1"><rect x="0" y="0" width="1920" height="1080" fill="#002233"></rect><path d="M0 707L45.7 705C91.3 703 182.7 699 274.2 707.8C365.7 716.7 457.3 738.3 548.8 771.2C640.3 804 731.7 848 823 836.3C914.3 824.7 1005.7 757.3 1097 740.7C1188.3 724 1279.7 758 1371.2 778.5C1462.7 799 1554.3 806 1645.8 787.2C1737.3 768.3 1828.7 723.7 1874.3 701.3L1920 679L1920 1081L1874.3 1081C1828.7 1081 1737.3 1081 1645.8 1081C1554.3 1081 1462.7 1081 1371.2 1081C1279.7 1081 1188.3 1081 1097 1081C1005.7 1081 914.3 1081 823 1081C731.7 1081 640.3 1081 548.8 1081C457.3 1081 365.7 1081 274.2 1081C182.7 1081 91.3 1081 45.7 1081L0 1081Z" fill="#0066FF" stroke-linecap="round" stroke-linejoin="miter"></path></svg>